# xmcd
#
# Track frame offsets:
#       150
#       15608
#       34217
#       42580
#       54378
#       87502
#       96793
#       109621
#       119171
#       136042
#       148626
#       164353
#       176024
#       184574
#       197736
#       212223
#       224927
#       245485
#       262327
#
# Disc length: 3632 seconds
#
# Revision: 0
# Processed by: cddbd v1.5.1PL2 Copyright (c) Steve Scherf et al.
# Submitted via: WhereIsIt 3.72
#
DISCID=290e2e13
DTITLE=Bob Dylan and Johnny Cash - Complete Nashville Sessions
DYEAR=1969
DGENRE=Folk/Country
TTITLE0=One too many mornings #1.cda
TTITLE1=One too many mornings #2.cda
TTITLE2=Good ol' mountain dew.cda
TTITLE3=I still miss someone.cda
TTITLE4=Careless love.cda
TTITLE5=Matchbox.cda
TTITLE6=That's alright mama.cda
TTITLE7=Big river.cda
TTITLE8=Girl of the north country.cda
TTITLE9=I walk the line.cda
TTITLE10=You are my sunshine.cda
TTITLE11=Ring of fire.cda
TTITLE12=Guess things happen that way.cda
TTITLE13=Just a closer walk with thee.cda
TTITLE14=Blues Yodel #1.cda
TTITLE15=Blues Yodel #2.cda
TTITLE16=I threw it all away.cda
TTITLE17=Girl of the north country.cda
TTITLE18=Living the blues
EXTD=Bootleg
EXTT0=
EXTT1=
EXTT2=
EXTT3=
EXTT4=
EXTT5=
EXTT6=
EXTT7=
EXTT8=
EXTT9=
EXTT10=
EXTT11=
EXTT12=
EXTT13=
EXTT14=
EXTT15=
EXTT16=
EXTT17=
EXTT18=
PLAYORDER=
